<svg width="143" height="117" viewBox="0 0 143 117" fill="none" xmlns="http://www.w3.org/2000/svg">
<path d="M17.9443 49H10.9619V20.9971H0.439453V13.9902H28.4424V20.9971H17.9443V49ZM38.1104 49H31.4453V12.4521H38.1104V24C38.9079 23.3978 39.7298 22.9746 40.5762 22.7305C41.4225 22.4701 42.2852 22.3398 43.1641 22.3398C44.7754 22.3398 46.2891 22.6491 47.7051 23.2676C49.1211 23.8698 50.3499 24.708 51.3916 25.7822C52.4495 26.8402 53.2796 28.0853 53.8818 29.5176C54.5003 30.9336 54.8096 32.4473 54.8096 34.0586V49H48.0957V34.0586H48.1445C48.1445 33.375 48.0143 32.7321 47.7539 32.1299C47.4935 31.5114 47.1354 30.9743 46.6797 30.5186C46.224 30.0628 45.695 29.7048 45.0928 29.4443C44.4906 29.1839 43.8477 29.0537 43.1641 29.0537C42.4642 29.0537 41.805 29.1839 41.1865 29.4443C40.568 29.7048 40.0309 30.0628 39.5752 30.5186C39.1195 30.9743 38.7614 31.5114 38.501 32.1299C38.2406 32.7321 38.1104 33.375 38.1104 34.0586V49ZM69.9707 42.6035C70.2311 42.6849 70.4915 42.7419 70.752 42.7744C71.0124 42.7907 71.2728 42.7988 71.5332 42.7988C72.1842 42.7988 72.8109 42.7093 73.4131 42.5303C74.0153 42.3512 74.5768 42.099 75.0977 41.7734C75.6348 41.4316 76.1068 41.0247 76.5137 40.5527C76.9368 40.0645 77.2786 39.5273 77.5391 38.9414L82.4219 43.8486C81.8034 44.7275 81.0872 45.5169 80.2734 46.2168C79.4759 46.9167 78.6051 47.5107 77.6611 47.999C76.7334 48.4873 75.7487 48.8535 74.707 49.0977C73.6816 49.3581 72.6237 49.4883 71.5332 49.4883C69.694 49.4883 67.9606 49.1465 66.333 48.4629C64.7217 47.7793 63.3057 46.8271 62.085 45.6064C60.8805 44.3857 59.9284 42.9372 59.2285 41.2607C58.5286 39.568 58.1787 37.7126 58.1787 35.6943C58.1787 33.6273 58.5286 31.7393 59.2285 30.0303C59.9284 28.3213 60.8805 26.8646 62.085 25.6602C63.3057 24.4557 64.7217 23.5199 66.333 22.8525C67.9606 22.1852 69.694 21.8516 71.5332 21.8516C72.6237 21.8516 73.6898 21.9818 74.7314 22.2422C75.7731 22.5026 76.7578 22.877 77.6855 23.3652C78.6296 23.8535 79.5085 24.4557 80.3223 25.1719C81.1361 25.8717 81.8522 26.6611 82.4707 27.54L69.9707 42.6035ZM73.3887 28.8584C73.0794 28.7445 72.7702 28.6712 72.4609 28.6387C72.168 28.6061 71.8587 28.5898 71.5332 28.5898C70.6217 28.5898 69.7591 28.7607 68.9453 29.1025C68.1478 29.4281 67.4479 29.9001 66.8457 30.5186C66.2598 31.137 65.7959 31.8857 65.4541 32.7646C65.1123 33.6273 64.9414 34.6038 64.9414 35.6943C64.9414 35.9385 64.9495 36.2152 64.9658 36.5244C64.9984 36.8337 65.0391 37.151 65.0879 37.4766C65.153 37.7858 65.2262 38.0869 65.3076 38.3799C65.389 38.6729 65.4948 38.9333 65.625 39.1611L73.3887 28.8584Z" fill="white"/>
<path d="M37.9883 93.9902C37.9883 95.4388 37.7116 96.806 37.1582 98.0918C36.6211 99.3613 35.8724 100.476 34.9121 101.437C33.9681 102.381 32.8532 103.129 31.5674 103.683C30.2979 104.22 28.9388 104.488 27.4902 104.488C26.1882 104.488 24.9349 104.26 23.7305 103.805C22.5423 103.349 21.4681 102.682 20.5078 101.803C19.5475 102.682 18.4652 103.349 17.2607 103.805C16.0563 104.26 14.8031 104.488 13.501 104.488C12.0524 104.488 10.6852 104.22 9.39941 103.683C8.12988 103.129 7.01497 102.381 6.05469 101.437C5.11068 100.476 4.36198 99.3613 3.80859 98.0918C3.27148 96.806 3.00293 95.4388 3.00293 93.9902V68.9902H10.0098V93.9902C10.0098 94.4785 10.0993 94.9424 10.2783 95.3818C10.4574 95.805 10.7015 96.1794 11.0107 96.5049C11.3363 96.8141 11.7106 97.0583 12.1338 97.2373C12.557 97.4163 13.0127 97.5059 13.501 97.5059C13.9893 97.5059 14.445 97.4163 14.8682 97.2373C15.2913 97.0583 15.6576 96.8141 15.9668 96.5049C16.2923 96.1794 16.5446 95.805 16.7236 95.3818C16.9027 94.9424 16.9922 94.4785 16.9922 93.9902V68.9902H23.999V93.9902C23.999 94.4785 24.0885 94.9424 24.2676 95.3818C24.4466 95.805 24.6908 96.1794 25 96.5049C25.3255 96.8141 25.6999 97.0583 26.123 97.2373C26.5462 97.4163 27.002 97.5059 27.4902 97.5059C27.9785 97.5059 28.4342 97.4163 28.8574 97.2373C29.2806 97.0583 29.6468 96.8141 29.9561 96.5049C30.2816 96.1794 30.5339 95.805 30.7129 95.3818C30.9082 94.9424 31.0059 94.4785 31.0059 93.9902V68.9902H37.9883V93.9902ZM68.5303 104H66.9189L64.3311 100.411C63.6963 100.981 63.0208 101.518 62.3047 102.022C61.6048 102.511 60.8643 102.942 60.083 103.316C59.3018 103.674 58.4961 103.959 57.666 104.171C56.8522 104.382 56.0221 104.488 55.1758 104.488C53.3366 104.488 51.6032 104.179 49.9756 103.561C48.3643 102.942 46.9482 102.047 45.7275 100.875C44.5231 99.6868 43.571 98.2383 42.8711 96.5293C42.1712 94.8203 41.8213 92.8753 41.8213 90.6943C41.8213 88.6598 42.1712 86.7962 42.8711 85.1035C43.571 83.3945 44.5231 81.9297 45.7275 80.709C46.9482 79.4883 48.3643 78.5443 49.9756 77.877C51.6032 77.1934 53.3366 76.8516 55.1758 76.8516C56.0221 76.8516 56.8604 76.9574 57.6904 77.1689C58.5205 77.3805 59.3262 77.6735 60.1074 78.0479C60.8887 78.4222 61.6292 78.8617 62.3291 79.3662C63.0452 79.8708 63.7126 80.416 64.3311 81.002L66.9189 77.9014H68.5303V104ZM61.8164 90.6943C61.8164 89.7829 61.6374 88.904 61.2793 88.0576C60.9375 87.195 60.4655 86.4382 59.8633 85.7871C59.2611 85.1198 58.5531 84.5908 57.7393 84.2002C56.9417 83.7933 56.0872 83.5898 55.1758 83.5898C54.2643 83.5898 53.4017 83.7445 52.5879 84.0537C51.7904 84.363 51.0905 84.8187 50.4883 85.4209C49.9023 86.0231 49.4385 86.7718 49.0967 87.667C48.7549 88.5459 48.584 89.555 48.584 90.6943C48.584 91.8337 48.7549 92.8509 49.0967 93.7461C49.4385 94.625 49.9023 95.3656 50.4883 95.9678C51.0905 96.57 51.7904 97.0257 52.5879 97.335C53.4017 97.6442 54.2643 97.7988 55.1758 97.7988C56.0872 97.7988 56.9417 97.6035 57.7393 97.2129C58.5531 96.806 59.2611 96.277 59.8633 95.626C60.4655 94.9587 60.9375 94.2018 61.2793 93.3555C61.6374 92.4928 61.8164 91.6058 61.8164 90.6943ZM80.3467 104H73.6328V67.4521H80.3467V104ZM92.1631 104H85.4492V67.4521H92.1631V104ZM107.666 97.6035C107.926 97.6849 108.187 97.7419 108.447 97.7744C108.708 97.7907 108.968 97.7988 109.229 97.7988C109.88 97.7988 110.506 97.7093 111.108 97.5303C111.711 97.3512 112.272 97.099 112.793 96.7734C113.33 96.4316 113.802 96.0247 114.209 95.5527C114.632 95.0645 114.974 94.5273 115.234 93.9414L120.117 98.8486C119.499 99.7275 118.783 100.517 117.969 101.217C117.171 101.917 116.3 102.511 115.356 102.999C114.429 103.487 113.444 103.854 112.402 104.098C111.377 104.358 110.319 104.488 109.229 104.488C107.389 104.488 105.656 104.146 104.028 103.463C102.417 102.779 101.001 101.827 99.7803 100.606C98.5758 99.3857 97.6237 97.9372 96.9238 96.2607C96.224 94.568 95.874 92.7126 95.874 90.6943C95.874 88.6273 96.224 86.7393 96.9238 85.0303C97.6237 83.3213 98.5758 81.8646 99.7803 80.6602C101.001 79.4557 102.417 78.5199 104.028 77.8525C105.656 77.1852 107.389 76.8516 109.229 76.8516C110.319 76.8516 111.385 76.9818 112.427 77.2422C113.468 77.5026 114.453 77.877 115.381 78.3652C116.325 78.8535 117.204 79.4557 118.018 80.1719C118.831 80.8717 119.548 81.6611 120.166 82.54L107.666 97.6035ZM111.084 83.8584C110.775 83.7445 110.465 83.6712 110.156 83.6387C109.863 83.6061 109.554 83.5898 109.229 83.5898C108.317 83.5898 107.454 83.7607 106.641 84.1025C105.843 84.4281 105.143 84.9001 104.541 85.5186C103.955 86.137 103.491 86.8857 103.149 87.7646C102.808 88.6273 102.637 89.6038 102.637 90.6943C102.637 90.9385 102.645 91.2152 102.661 91.5244C102.694 91.8337 102.734 92.151 102.783 92.4766C102.848 92.7858 102.922 93.0869 103.003 93.3799C103.084 93.6729 103.19 93.9333 103.32 94.1611L111.084 83.8584ZM136.646 104C135.034 104 133.521 103.699 132.104 103.097C130.688 102.478 129.443 101.64 128.369 100.582C127.311 99.5078 126.473 98.2627 125.854 96.8467C125.252 95.4307 124.951 93.917 124.951 92.3057V84.542H121.704V77.9014H124.951V67.4521H131.592V77.9014H141.699V84.542H131.592V92.3057C131.592 93.0055 131.722 93.6647 131.982 94.2832C132.243 94.8854 132.601 95.4144 133.057 95.8701C133.512 96.3258 134.049 96.6921 134.668 96.9688C135.286 97.2292 135.946 97.3594 136.646 97.3594H141.699V104H136.646Z" fill="#FDB32A"/>
</svg>
